<?xml version="1.0" standalone="no"?>
<!DOCTYPE svg PUBLIC "-//W3C//DTD SVG 20010904//EN"
 "http://www.w3.org/TR/2001/REC-SVG-20010904/DTD/svg10.dtd">
<svg version="1.0" xmlns="http://www.w3.org/2000/svg"
 width="400.000000pt" height="400.000000pt" viewBox="0 0 400.000000 400.000000"
 preserveAspectRatio="xMidYMid meet">
<metadata>
Created by potrace 1.14, written by Peter Selinger 2001-2017
</metadata>
<g transform="translate(0.000000,400.000000) scale(0.100000,-0.100000)"
fill="#000000" stroke="none">
<path d="M1665 3977 c-253 -65 -471 -203 -625 -397 -92 -117 -145 -203 -189
-312 -89 -217 -118 -467 -84 -730 l6 -48 -45 0 c-53 0 -101 -28 -135 -79 -30
-44 -31 -128 -3 -237 26 -102 66 -181 138 -271 32 -40 80 -111 106 -157 58
-105 78 -119 159 -114 l61 3 41 -132 c23 -72 55 -153 70 -180 16 -26 90 -110
165 -185 l136 -138 -51 -15 c-27 -8 -57 -21 -65 -28 -32 -25 -68 -84 -85 -137
-42 -131 -99 -216 -188 -283 -28 -21 -38 -37 -43 -67 -4 -22 -10 -40 -13 -40
-38 0 -533 -85 -586 -101 -159 -47 -332 -173 -393 -286 l-23 -43 1971 0 1971
0 -18 31 c-28 50 -142 161 -207 204 -109 70 -223 107 -588 186 -132 28 -198
47 -198 55 0 7 -34 46 -76 86 -102 99 -140 158 -167 265 -26 101 -59 145 -123
162 l-40 11 141 142 c80 81 149 160 160 183 10 22 37 101 60 175 l41 135 63
-3 c78 -5 93 7 159 127 26 46 63 102 83 125 58 66 116 162 138 229 27 80 42
202 32 249 -18 76 -80 128 -156 128 l-36 0 8 73 c4 39 7 140 7 222 -4 354
-121 637 -372 892 -125 128 -321 241 -511 295 -68 19 -105 22 -341 25 -249 2
-271 1 -355 -20z m-147 -1433 c88 -27 139 -37 207 -39 82 -4 92 -6 112 -29 33
-39 52 -120 37 -159 -4 -12 -15 -10 -62 14 -31 16 -64 29 -73 29 -9 0 -33 11
-53 25 -95 65 -113 70 -237 70 -113 0 -117 -1 -191 -37 -82 -41 -206 -83 -216
-73 -10 10 17 94 43 134 27 40 66 63 150 86 87 23 154 18 283 -21z m1242 21
c30 -8 72 -22 92 -31 55 -25 108 -115 108 -185 l0 -28 -42 15 c-24 9 -64 22
-90 29 -41 11 -48 11 -48 -1 0 -30 -41 -93 -73 -113 -50 -31 -56 -28 -44 23 7
30 7 59 0 88 -9 42 -10 42 -10 -28 0 -115 -13 -124 -169 -124 -83 0 -85 1 -95
28 -6 15 -11 49 -12 76 -1 51 9 63 63 78 17 4 9 6 -22 5 l-48 -2 -6 -43 c-3
-23 -1 -62 5 -87 14 -56 14 -54 -6 -49 -10 2 -35 5 -57 8 -21 2 -45 11 -54 20
-14 14 -13 19 14 57 39 56 116 116 162 126 74 15 223 8 287 -15 33 -11 61 -19
63 -18 6 7 -92 47 -139 57 -28 6 -86 9 -129 8 -66 -4 -88 -9 -150 -42 -39 -20
-99 -47 -133 -58 -34 -11 -66 -25 -71 -30 -51 -49 -44 87 7 147 20 23 30 25
112 29 68 2 117 11 200 38 124 39 199 45 285 22z m-1159 -152 c39 -15 149
-125 149 -148 0 -23 -36 -43 -83 -47 -44 -3 -48 -2 -42 17 12 44 16 111 7 135
-7 20 -9 11 -9 -42 0 -40 -6 -74 -13 -83 -7 -8 -9 -15 -4 -15 5 0 2 -5 -6 -10
-23 -15 -203 -13 -224 3 -23 17 -36 82 -27 134 5 24 5 43 0 43 -14 0 -22 -89
-11 -130 8 -34 7 -40 -5 -40 -46 0 -123 85 -123 134 0 20 51 47 120 63 68 16
216 8 271 -14z m189 -288 c-5 -7 -8 -14 -5 -17 2 -2 -10 -20 -28 -39 -17 -20
-36 -44 -42 -53 -5 -10 -14 -18 -20 -19 -5 -1 -18 -8 -28 -17 -10 -8 -19 -13
-21 -10 -2 3 -10 -1 -19 -9 -10 -7 -17 -10 -17 -6 0 4 -8 1 -17 -6 -16 -12
-17 -12 -6 2 7 9 9 19 5 23 -4 4 0 6 8 4 8 -2 14 3 13 10 -2 6 3 11 10 10 6
-2 11 2 10 8 -1 6 4 11 12 11 7 0 12 -8 10 -19 -2 -10 0 -16 5 -13 9 6 8 24
-4 43 -5 8 -3 12 6 10 7 -2 12 3 11 10 -2 6 3 11 10 10 6 -2 11 3 10 10 -2 6
3 11 10 10 6 -2 11 3 10 10 -2 6 3 11 10 10 6 -2 11 2 10 8 -1 6 8 11 20 10
12 0 21 4 20 10 -1 6 5 11 12 11 10 0 12 -4 5 -12z m428 3 c-2 -7 3 -12 10
-10 6 1 11 -1 10 -5 -2 -5 2 -9 7 -9 6 -1 9 1 8 5 -1 4 4 8 12 8 8 0 13 -5 12
-11 -1 -6 4 -10 11 -8 6 1 11 -4 10 -10 -2 -7 3 -12 10 -10 6 1 11 -4 10 -10
-2 -7 3 -12 10 -10 6 1 11 -4 10 -10 -2 -7 3 -12 10 -10 6 1 11 -4 10 -10 -2
-7 3 -12 10 -10 6 1 11 -4 10 -10 -2 -7 2 -12 8 -11 5 1 10 -9 10 -22 0 -18
-5 -22 -20 -19 -11 2 -23 9 -26 15 -4 6 -10 10 -14 10 -3 -1 -6 2 -6 7 0 4 9
6 20 6 11 -1 17 3 14 7 -3 5 -10 6 -16 3 -7 -5 -8 -2 -3 6 6 9 4 11 -5 5 -9
-6 -11 -4 -5 5 5 9 4 11 -4 6 -6 -4 -9 -11 -6 -16 3 -5 1 -12 -5 -15 -15 -9
-42 15 -36 32 3 8 2 12 -3 9 -4 -3 -19 6 -31 19 -13 14 -20 25 -15 25 5 0 -1
10 -13 23 -12 13 -19 27 -15 30 10 10 13 8 11 -5z"/>
<path d="M2489 2371 c-46 -37 -21 -141 35 -141 15 0 17 3 8 12 -17 17 -15 38
3 38 8 0 15 -8 15 -17 1 -16 2 -16 15 1 21 28 19 63 -6 97 -24 34 -38 36 -70
10z"/>
<path d="M1459 2371 c-46 -37 -21 -141 35 -141 15 0 17 3 8 12 -17 17 -15 38
3 38 8 0 15 -8 15 -17 1 -16 2 -16 15 1 21 28 19 63 -6 97 -24 34 -38 36 -70
10z"/>
<path d="M1718 2073 c-34 -35 -44 -60 -23 -60 7 0 12 10 11 21 -1 12 4 20 10
19 6 -1 23 10 38 26 18 19 22 28 12 28 -9 0 -30 -15 -48 -34z m42 24 c0 -2
-10 -12 -22 -23 l-23 -19 19 23 c18 21 26 27 26 19z"/>
<path d="M1624 1978 c-12 -14 -13 -18 -3 -10 9 6 18 10 21 7 2 -3 5 2 5 10 0
19 0 19 -23 -7z"/>
<path d="M2251 2086 c-9 -10 -8 -16 4 -26 9 -8 15 -9 13 -3 -2 6 2 11 7 11 6
0 9 -4 8 -9 -2 -5 3 -8 10 -6 6 1 11 -3 10 -9 -1 -6 5 -11 13 -11 9 0 3 12
-18 34 -37 38 -33 37 -47 19z"/>
<path d="M2366 1981 c-4 -5 -2 -12 3 -15 5 -4 12 -2 15 3 4 5 2 12 -3 15 -5 4
-12 2 -15 -3z"/>
</g>
</svg>
